<svg xmlns="http://www.w3.org/2000/svg" viewBox="0 0 640 480" fill="none" role="img" aria-label="Elegant home interior illustration with warm natural light">
  <defs>
    <linearGradient id="wall" x1="0%" y1="0%" x2="100%" y2="100%">
      <stop offset="0%" stop-color="#f5f2ed"/>
      <stop offset="100%" stop-color="#ebe6df"/>
    </linearGradient>
    <linearGradient id="floor" x1="0%" y1="0%" x2="0%" y2="100%">
      <stop offset="0%" stop-color="#d4ccc3"/>
      <stop offset="100%" stop-color="#c4a898"/>
    </linearGradient>
    <linearGradient id="light" x1="50%" y1="0%" x2="50%" y2="100%">
      <stop offset="0%" stop-color="#faf8f5" stop-opacity="0.9"/>
      <stop offset="100%" stop-color="#faf8f5" stop-opacity="0"/>
    </linearGradient>
  </defs>
  <rect width="640" height="480" rx="16" fill="url(#wall)"/>
  <rect x="0" y="360" width="640" height="120" fill="url(#floor)"/>
  <rect x="80" y="60" width="200" height="280" rx="4" fill="#faf8f5" stroke="#d4ccc3" stroke-width="1.5"/>
  <line x1="180" y1="60" x2="180" y2="340" stroke="#d4ccc3" stroke-width="1"/>
  <line x1="80" y1="180" x2="280" y2="180" stroke="#d4ccc3" stroke-width="1"/>
  <rect x="340" y="100" width="220" height="160" rx="4" fill="#f3efe9" stroke="#d4ccc3" stroke-width="1"/>
  <rect x="380" y="280" width="140" height="80" rx="4" fill="#ebe6df" stroke="#c4a898" stroke-width="1"/>
  <rect x="420" y="60" width="120" height="200" fill="url(#light)" opacity="0.7"/>
  <circle cx="520" cy="120" r="40" fill="#f3efe9" stroke="#d4b5a8" stroke-width="1" opacity="0.6"/>
  <path d="M60 360 L320 360 L340 400 L60 400 Z" fill="#ebe6df" stroke="#d4ccc3" stroke-width="0.75"/>
  <rect x="100" y="200" width="60" height="8" rx="2" fill="#c4a898" opacity="0.5"/>
  <rect x="100" y="220" width="40" height="8" rx="2" fill="#c4a898" opacity="0.35"/>
  <rect x="360" y="130" width="80" height="6" rx="2" fill="#c4a898" opacity="0.4"/>
  <rect x="360" y="148" width="60" height="6" rx="2" fill="#c4a898" opacity="0.3"/>
  <circle cx="480" cy="320" r="24" fill="#7a9e6e" opacity="0.25"/>
  <rect x="468" y="300" width="24" height="40" rx="2" fill="#7a9e6e" opacity="0.2"/>
  <circle cx="100" cy="100" r="50" stroke="#b91c38" stroke-width="0.5" opacity="0.15"/>
  <circle cx="100" cy="100" r="35" stroke="#b91c38" stroke-width="0.5" opacity="0.1"/>
  <line x1="100" y1="50" x2="100" y2="150" stroke="#b91c38" stroke-width="0.3" opacity="0.15"/>
  <line x1="50" y1="100" x2="150" y2="100" stroke="#b91c38" stroke-width="0.3" opacity="0.15"/>
</svg>
